<svg width="200" height="200" viewBox="0 0 200 200" fill="none" xmlns="http://www.w3.org/2000/svg">
<rect width="200" height="200" fill="white"/>
<path d="M80.9727 129.098C84.5371 130.514 87.3447 131.612 89.3955 132.394C91.4463 133.175 93.5947 133.858 95.8408 134.444C96.4756 132.833 96.793 130.636 96.793 127.853C96.793 124.093 96.5244 117.208 95.9873 107.198C95.2061 93.8193 94.8154 83.5654 94.8154 76.4365C94.8154 71.5049 94.9619 67.2568 95.2549 63.6924L83.1699 62.96L82.9502 86.0312C79.2881 87.252 75.1621 87.8623 70.5723 87.8623C69.4004 87.8623 68.5215 87.8379 67.9355 87.7891C66.3242 86.5195 64.6396 84.5176 62.8818 81.7832C61.1729 79.0488 59.7568 75.9727 58.6338 72.5547C57.5107 69.1367 56.9492 65.8408 56.9492 62.667C56.9492 57.1982 57.8525 53.0234 59.6592 50.1426C61.4658 47.2617 64.0049 45.2842 67.2764 44.21C70.5479 43.0869 74.918 42.3545 80.3867 42.0127C88.8828 41.5244 98.8682 41.1582 110.343 40.9141C121.866 40.6211 132.877 40.4746 143.375 40.4746C144.791 42.2813 145.841 44.3076 146.524 46.5537C147.257 48.7998 147.623 51.0459 147.623 53.292C147.623 57.4912 146.549 61.0068 144.4 63.8389C142.252 66.6709 139.078 68.0869 134.879 68.0869C132.145 68.0869 128.849 67.5986 124.991 66.6221C124.112 89.5713 122.843 110.763 121.183 130.196C120.841 133.956 120.279 137.276 119.498 140.157C118.717 143.038 117.521 145.553 115.909 147.701C113.907 150.338 111.148 152.291 107.633 153.561C104.117 154.83 100.235 155.465 95.9873 155.465C91.9834 155.465 88.0283 154.757 84.1221 153.341C80.2646 151.925 77.3594 149.312 75.4062 145.504C75.4551 142.33 75.8457 139.522 76.5781 137.081C77.3105 134.591 78.7754 131.93 80.9727 129.098Z" fill="#5076FF"/>
</svg>
